<svg width="24" height="16" viewBox="0 0 24 16" fill="none" xmlns="http://www.w3.org/2000/svg">
<path d="M2.48998 15.619C2.23765 15.6342 1.98497 15.5963 1.74822 15.5077C1.51146 15.4191 1.29592 15.2819 1.11553 15.1048C0.935142 14.9277 0.793914 14.7147 0.700978 14.4796C0.608042 14.2446 0.565449 13.9926 0.575978 13.74V13.703C0.607978 9.82403 0.588978 5.94497 0.588978 2.06497C0.554149 1.8062 0.579725 1.54292 0.663685 1.29568C0.747646 1.04845 0.887718 0.824088 1.07293 0.640042C1.25813 0.455996 1.48343 0.317293 1.73119 0.234891C1.97895 0.152488 2.24242 0.128609 2.50097 0.165066H12.0329C15.1859 0.165066 18.34 0.195052 21.492 0.150052H21.576C21.8285 0.138599 22.0806 0.180176 22.316 0.272244C22.5514 0.364312 22.7649 0.50475 22.9427 0.684475C23.1204 0.864201 23.2584 1.07928 23.3479 1.3157C23.4373 1.55212 23.4762 1.80466 23.462 2.05703V2.10208C23.427 5.96908 23.449 9.83705 23.448 13.7021C23.4837 13.9612 23.4588 14.225 23.3752 14.4729C23.2916 14.7208 23.1516 14.946 22.9663 15.1306C22.781 15.3153 22.5554 15.4543 22.3072 15.537C22.059 15.6197 21.795 15.6437 21.536 15.6071H16.371C11.75 15.6071 7.12798 15.6021 2.50798 15.6231L2.48998 15.619ZM2.74498 12.7641C2.63798 13.1031 2.891 13.3871 3.307 13.3891C4.627 13.3891 5.94699 13.3891 7.26799 13.3891C8.58899 13.3891 9.90897 13.3891 11.23 13.3891C11.2982 13.3955 11.3671 13.3882 11.4325 13.3678C11.498 13.3474 11.5587 13.3142 11.6112 13.27C11.6637 13.2259 11.7069 13.1718 11.7383 13.1109C11.7696 13.0499 11.7886 12.9834 11.794 12.9151C11.7923 12.8464 11.777 12.7788 11.7491 12.7161C11.7211 12.6534 11.681 12.5967 11.6311 12.5496C11.5812 12.5025 11.5224 12.4657 11.4582 12.4414C11.394 12.4171 11.3256 12.4057 11.257 12.408C11.162 12.399 11.067 12.408 10.971 12.408H5.93895C5.08229 12.408 4.22567 12.408 3.36901 12.408H3.36297C3.08697 12.403 2.83998 12.4631 2.74498 12.7641ZM3.31597 4.80301C2.88897 4.80301 2.72799 4.96106 2.72399 5.37906C2.71799 6.02106 2.71799 6.6637 2.72399 7.30703C2.72399 7.72603 2.88897 7.89303 3.30297 7.90103C3.75497 7.90903 4.20299 7.90103 4.65899 7.90103C5.11499 7.90103 5.58695 7.90603 6.05095 7.90103C6.46695 7.89503 6.64399 7.727 6.65099 7.319C6.65899 6.67633 6.65899 6.03369 6.65099 5.39102C6.65099 4.97102 6.48299 4.80601 6.06499 4.80301C5.62832 4.80301 5.19067 4.80301 4.752 4.80301C4.27334 4.80101 3.79501 4.80101 3.31701 4.80301H3.31597ZM15.606 3.03299C15.206 3.03299 15.006 3.20603 15.006 3.52603C15.006 3.84603 15.217 4.01502 15.616 4.01602C17.3053 4.01602 18.995 4.01602 20.685 4.01602C21.085 4.01602 21.301 3.84204 21.31 3.53604C21.319 3.21304 21.1 3.03604 20.678 3.03604C19.833 3.03604 18.988 3.03604 18.144 3.03604H16.623L15.606 3.03299Z" fill="#D1D1D1"/>
</svg>
